<svg id="ukraine" xmlns="http://www.w3.org/2000/svg" viewBox="0 0 1097.87 743.49">
<defs>
<style>.cls-1,.cls-2{fill:none;stroke:#3b82f6;stroke-width:2px}.cls-1{stroke-linecap:round;stroke-linejoin:round}.cls-2{stroke-miterlimit:13.33}</style>
</defs>
<path id="bessarabiya" class="cls-2" d="M475.2,545.27s3.9-6.69,4.09-11.84c0,0,9.67-1.84,6.93,10.64,0,0-4.94,13.24,1.17,17.29,0,0-1.62,3.07.73,7.5,2.13,4,3.6,3.84,7.78,7.12s11.11,7.75,11.47,10.79-1.44,6.94-14.74,14.31-14.28,9.11-17.43,12.16c0,0-8.68,16.1-19.09,1.7,0,0-6.13,11.33-4.16,21.7,0,0,.57,5,5.55,12.38s3.2,13.6.67,15.46c0,0-6.24-21.87-26.53-19.2a51.41,51.41,0,0,0-21.46,11.46s-8.77-5.18-12.26,1.89-15.62,4-28.57-5.83c0,0-8-4.53-3.55-15.16,0,0,27.72,7.59,18.57-13.93a27.72,27.72,0,0,0,19.1-26.84s10.57-7,15.1-14.76-1.75-11-3.75-12.59-8.09-5.76-.7-19.23,15.5-3.18,15.5-3.18,23.54,17.15,37.71,16.39S480.7,552,480.7,552A9.22,9.22,0,0,0,475.2,545.27Z" style="fill: none;"></path>
<path id="prychornomorya" class="cls-2" d="M437.48,417.85s1,3.87-8.45,30c0,0-2.11,4.58-1.7,7.81a2.5,2.5,0,0,0,2,2.15,20.77,20.77,0,0,0,4.26.22c5.36-.14,7.93,11,8.5,14.06s3.26,2.12,6.19-1.51,12.19-3.52,11.37,11.59-2,23.32-2,23.32,12.87,2.68,17,8.61c4.32,6.19,5.35,4.82,4.61,19.29,0,0,10.85-1.65,6.53,12s1.64,15.77,1.64,15.77,8.3-15.33,26.45,20.15c0,0,14.19-10.28,14.57-26.27s10.14-23.11,27-21.15c0,0,21.08,12,23.93-8.39v11.63s8.93-11,20.94-1.62c0,0-3.91-23.15,5.46-28.42,0,0,1-1.81,0,7.7-1.08,10.71.17,10.71.17,10.71s4.63-4.85,17.69-5.89a98.11,98.11,0,0,1,10.81-.34c3.15.29,11.61-.91,12.35-1.21s17.67-3.1,20.12-7.81c2.25-4.35-.25-7.45-.43-8.73s-4.77-7.48,1.7-13.26c0,0,13.07-5.26,8.2-16.62,0,0-3.26-6.8-8-10.1l-9.2,1.92s-17.39,3-18.69,3-18.9,2.66-19.21,2.48-5.4.89-10.36,1.16-15.18.89-16.2,1.28-5.52.66-8.67,1.28-11.86,3-14.7,3.71-9.16-.05-12.92-2.49-3.77-2.87-4.82-5.09A50.19,50.19,0,0,0,544,455.63c-5.29-5.1-14.63-11.48-24.13-13.25s-10.8-8.22-10.8-8.22-3.68-11-9.38-17.26-17.61-2.71-17.61-2.71l-10.38,1.74s-14.63,1.55-19.07,1.63S442.44,418.11,437.48,417.85Z" style="fill: none;"></path>
<path id="tavria" class="cls-2" d="M668.4,461.62s20.29,15.86,0,26.57c0,0-5.88,3.57-2.5,11.93s3.74,12-10.6,16-21.11,3.21-21.11,3.21-20.62-.92-28.25,6.25c0,0,.34,13.2,29,17.52,0,0,10,4.49,1.59,6.39S609.11,546,609.11,546s-19-5.66-23,.2c0,0-.81,3.9,4.94,4.47s18.55,2,19.35,6.11-6.47,10-12.6,12.39c0,0,5.22-3.42,16.21.46s20.22,12.5,31.17,14.38,19.65.67,34.33-4c0,0,10.83-7,17.47-.14,0,0,6,4.89,10.22,4.48,0,0,4.37,2.63,4.74-13.25,0,0,10.65,14.85,11.9,22.84s-.6,7.3-12.13,11.8c0,0-8.39,4.39-10.79,6.36s-10.67,4.72-14.13,4.94S669,627.37,660.47,636.61c0,0-17.38,7.22-20.62,14.74,0,0,5.73,9.9,16.44,5.26s10.77-3.71,19.48-.09l16.85,13.16s3.54,2.29,13.79-1.71c0,0,6.45-3.18,10.77,11.92s-.59,22-3.56,27.63c0,0-1.34.79-.18,4.6s-.45,7.06-7.94,11.44c0,0-6.2,2.91,4.82,8.11s22.31,9.84,23.57,9.82,5.19.69,14.76-7.66S782,704.36,782,704.36s2.55-1.47,3.57-1.41,1.35,1.38,17.14-9.6c0,0,5.27-1,13.59,7.77,0,0,1.27-10,5.38-14.76,0,0,2.33-2.43,9-3s5.09-9.29,5.09-9.29-.47-16.47,14.58-7.84c0,0,14.46,11.94,16.92,12.14s4.85,3.08,9.4-4c0,0,2.29-4.45,11.35-2.88s10.46,2.27,12.17,1.09.59-8.85,0-14.34,4.36-11.19,10.19-16.83c0,0,2.34-5.31-12.07-7.39s-21.94,6-25.2,10.16S862,638.72,862,638.72s-4.67,8.94-13.4,11.48-24.18,4-24.18,4a24.09,24.09,0,0,1-15.24-8.51s-1.85-15.9-4.3-18.71-4.3-7.75-19.64-11.23a10.39,10.39,0,0,1-4-9.6s-9.13,6.83-20-7.7c0,0-1.88-5.63-12-.56,0,0-3,.84-3.67-4.78,0,0-1.05-7.19-9.69-4.68s-8.57-.48-10.77-4.57-7.36-14.32-7.36-14.32,21.24,4.07,23.52,3.57,8.64-2.56,8-9.27l2.19-6.5S758.07,535.29,774,524c0,0,9.91-10.72,57.34-31.24,0,0-7.47-27.78-22-34.94a54.92,54.92,0,0,0-18.5-4.83s-5-.1-7.22-4.41c0,0-2.88-4.71-7.21-.87s-16.83,2.93-21.37-.51-18.32-9.41-34.53-1S671.59,461,668.4,461.62Z" style="fill: none;"></path>
<path id="pryazovya" class="cls-2" d="M934.44,449l10.46-3a316.61,316.61,0,0,1,51.46-4s.57,2.79,1.33,6.82a17.26,17.26,0,0,0,.79,2.81c1,2.79,3.17,9.49.42,12-3.52,3.19-3.85,5.42-20.59,9a59.24,59.24,0,0,0-27.45,14.43s-6.17,5-8.42,5.31c0,0-11.23,4-14.3,5.36s-11.88,4.95-14.63,8.71c0,0-.87,2.54-2.25,3s-1.1.63-11.3.44S881.35,522,881.35,522s-11.52-4.63-25.78,3.19c0,0-9.06,5-14.37,14,0,0-3.51,5.64-9.68,5.62s-8.91,10.26-8.91,10.26a7.38,7.38,0,0,0-6.64-6.88c-6.45-.91-15.36,15.9-15.36,15.9s-3.48,4.08-3.89,4.14.42,17.57,1.45,20.94,12.12,26.41,12.12,26.41S824,640.39,831,647.26a6.57,6.57,0,0,1,2,4.65h0s-2.44,2.9-6.27-4.58-13.46-18.78-13.46-18.78-6.5-3.76-8.66-16.66c0,0-1.33-5.35-3.77-7.2,0,0-.9,5.28-3.52,1.9s1-10.1,1-10.1,1-8-4.27-9.53c0,0-8.58-.45-6.05-4.29,0,0,5-.71,5.84-3.14s-2.29-5.53-4-6.31-10.48,5.35-28.16-1.86c0,0-11.92-6.73-12.37-7.51,0,0,3.76-12.65,8.77-20.85,4.74-7.75,10-17.42,33.49-30.68,23.63-13.36,40.25-19.76,40.25-19.76l69.13-32S923.77,451.34,934.44,449Z" style="fill: none;"></path>
<path id="prydniprovya-i-zaporijjya" class="cls-2" d="M940.72,446.57a19.2,19.2,0,0,0-9.66-12c-8.11-4.38-19.73-18.84-20.93-20.81,0,0-8-11.85-9.36-16.68a13.22,13.22,0,0,0-1.09-2.8c-2.24-4.09-8.1-14.41-11.47-16.6,0,0-18.37-13.42-42.3-15.15,0,0-11.5.22-21.39-6.57S797.85,335.46,789,333.25c0,0-1.15-.87-9.64-.26s-27.48.25-28.13.35-14.22,1.87-23.81-.57c0,0-7.25-1.95-9.7-4.33l-2.44-1.32S701,320,694.7,319.49c0,0-5-2.56-15.5,1.85,0,0-17.11,9-30,8.5,0,0-24.57,3.43-28.64,4.9s-14.51,6.25-26,13.92c0,0-9.84,5.59-33,12.66,0,0-15,6.59-24.6,8.71s-10.54-.24-10.54-.24,3.21,12.64-8.69,23.59-19.5,16.83-18.07,23.52a53.7,53.7,0,0,1,9.47,17.52s.95,5.93,10.24,7.86a49.81,49.81,0,0,1,27.11,16s6.5,8,7.14,10.61,9,11,21.76,6.55,35.16-5.2,35.16-5.2,40.58-4.19,57.32-8.64,36.21-6.53,51.34-14.87c0,0,17.23-11,35.26.14,0,0,11,6.74,21.92.82,0,0,4.49-4.77,8.05,2.31a11.51,11.51,0,0,0,7.79,3c5.17.18,17.58,3.7,21.78,7.86s12.89,14.3,17.19,31.4l.14.47,37.58-17.39,31.21-14.44s27.23-10.65,33.83-11.86C934,449.07,940.62,447.66,940.72,446.57Z" style="fill: none;"></path>
<path id="donechchyna" class="cls-2" d="M1069,306.87s-4.84,13.74,12.8,15.47a5.47,5.47,0,0,1,4.6,3.35c1.12,2.83,2.06,8.1,1.24,17.85-1.62,19.28-4.31,40.82-1.37,46.91,0,0-37.17-5.87-54.07,5a15,15,0,0,0-7.06,14.34s.43,7.71-8.28,4.81S1003.77,421.74,1002,425s-6.41,11.36-5.67,17c0,0-39,0-55.64,5.11,0,0,0-6.4-9.66-12.43s-24.43-21.45-31-39.6c0,0-6.62-12.52-12.06-17.46,0,0,5.56-8.25,9.82-10.47,0,0,9.49-7,17-10.52s15.14-7.27,21.15-9.29,7.25-1.88,7.25-1.88,2.8-.48,3.94-1.46a94.84,94.84,0,0,0,15.33-11.6l3.21-3.06a4.42,4.42,0,0,1,1-.71c1.4-.77,5.22-2.76,8-3.14a56.79,56.79,0,0,1,17.27,1c6.51,1.45,15.79,2.48,15.79,2.48s10.56,1.07,16.71-1.13c0,0,4.24-1.41,5.62-2.58s10.71-8.38,15.92-11.1S1062.45,305.85,1069,306.87Z" style="fill: none;"></path>
<path id="slobojanshyna" class="cls-2" d="M734.58,106.64s4.71,3.48,30.07.77c0,0,14.64-1.38,16.81,2.11s7.58,13.7,11.72,18.31,0,.7,0,.7,6.26,8.07,7.77,13.37,4.22,8.72-1.74,19.38,18.42,26.65,27.16,17.29,19.53-5.07,23.41,2.83,20.33,16.41,34.67,2.62c0,0,6.12-8.93,24.52-6.51,0,0,7.64-1.63,10.55-6.07s6.05-6.39,8.82,6.24,8.62,18.7,16,21.92c0,0,11.63,4.75,18.69,8.88s10.07-5.39,10.07-5.39,1.74-9.17,27.62,4.09c0,0,23.32,10.9,28.09,12.25,0,0,7-.08,9.54-1.49a21.37,21.37,0,0,1,18.06,5c8.83,7.41,16,13.35,26.7,7.4l4.16-2.92s2.8-2.78,0,5.35c0,0-5.47,11,5.14,22.5,0,0,8.71,6.84-3.46,12.46s-18.22,7-18,11.22c0,0-1.2,1.33,1,6.92s-3.07,21-3.07,21-13-2.29-37.62,17.17c0,0-6.91,8.24-30.76,3.9s-26.44-3.34-34.51.92c0,0-15.74,15.85-23.47,16.61s-48.45,18.12-54.39,32.25c0,0-19.34-14.24-43-15.21a43.9,43.9,0,0,1-22.71-7.86c-11.06-7.8-27-21.67-36.54-21.86,0,0-28,.93-34.67.55,0,0-3.81-23.87,22.74-35.19,0,0,24.59-6.12,34.38-20.47s3.09-29.78.6-35.87c0,0-7.52-14.25-11.72-17.51s-6.83-29.22-6.83-29.22-3.22-17.46-14.16-28.73c-10.61-10.93-17.67-13.65-37.41-22.7a35.73,35.73,0,0,0-3.43-1.33c-2.82-.91-10.68-3.66-10.68-24v-1.54S732.82,112,734.58,106.64Z" style="fill: none;"></path>
<path id="poltavshyna" class="cls-2" d="M724.76,116.77s-.53,20.12,7.79,24.19,29.63,12.23,34.18,17.28c0,0,20.1,11.64,23.63,38.35s6.91,27.71,6.91,27.71,20.9,22.91,15.2,44.08c0,0-1.37,19.51-39.47,30.17,0,0-23.11,7.85-21.73,34.79,0,0-20.16,3.26-31.09-3.48S696,319.26,694.7,319.49c0,0,2.26-8.93-6-23.94S665.37,266.44,662.79,264c-2.22-2.11-16.1-14.28-25.9-20.29,0,0-16.37-10-17-10.06s-13.49-11.75-19.22-21.91c0,0-9.86-15.63-12.13-26.91,0,0-9.14-34.64-9.2-44.23l1-.64s11.66-2.83,16.26-2.15a55.31,55.31,0,0,0,15.5-1.27s10.78-2.25,15.38-4.53,12-3,13.88-2.74,19.16.28,22.3-.12c0,0,24.09-1,36.43-4.19C700.06,125,722.84,119.23,724.76,116.77Z" style="fill: none;"></path>
<path id="sivershyna" class="cls-2" d="M734.58,106.64s-6.22-1.08-4.29-14.46a41.6,41.6,0,0,0-6.85-18.58c-6.15-8.86,6.49-12.3,6.49-12.3s14.79-6.44-4.1-20.08c0,0-15.2-8.08-14.36-18.13,0,0,0-13.64-18.92-20.59,0,0-3.09-1.34-8.26,2.75a59.84,59.84,0,0,1-8.49-.81c-5.74-.85-18,6.16-18,6.16s-17.08,9.53-32.72-3c0,0-5.78-7.31-1.9,8.65,0,0,2.09,18.89-19.49,18.76l-18.51-1.76s-28-5.92-34.77-.61c0,0-7,5.54-7.79,6.06s-10.69,4.18-14.13,12.06S518,67.81,519.41,81c0,0,3,13.2,3,16.36s.42,8.75-4.91,9.28c0,0,2.44,18.23-3.61,35.1,0,0-6.77,21.3-.67,32.87,0,0,8,9.1,20.66-4.47s19.59-17.95,19.59-17.95,16.4-13,25.91-12.17c0,0,13.56-2.86,19.45-2.16s21.2-2.4,29.25-6.08,18.74-2.15,18.74-2.15,32.46-.12,48.13-3.66S729.15,119.17,734.58,106.64Z" style="fill: none;"></path>
<path id="naddnipryanshyna" class="cls-2" d="M514.87,196.15s-7.25,6.23-54.1.09c0,0,6.31,13.4,3.23,37,0,0-4.84,17.47-18.5,24.69,0,0,13.65,15.43,17.23,22.24s6.86,9.91,6.86,9.91,13.3,16.59,15.86,18.62c0,0,4.86,5.61,6.55,6.22,1.13.41,13.63,14.2,15.82,18.48,0,0,13.65,24,19.07,36.58,0,0,1.69,5.34,34.38-8.57L584,353.6a118.25,118.25,0,0,0,16.4-8.47c10-6,15.75-10.37,29.76-12.56s19.09-2.73,19.09-2.73,11.72.7,28.59-8c0,0,10.44-4.52,16.64-2.61a.17.17,0,0,0,.24-.13c.43-1.91,3-17.46-20.44-43.5a197.43,197.43,0,0,0-53.07-41.22,12.93,12.93,0,0,1-2.44-1.62,100.23,100.23,0,0,1-30.69-49.7c-8.66-33.21-8.73-43.12-8.73-43.12s-16-2.18-48.81,33.67c0,0,7.07.49,0,9.69,0,0,6.32,10.94-.91,12C529.58,195.38,518.89,197.6,514.87,196.15Z" style="fill: none;"></path>
<path id="podillia" class="cls-2" d="M215.73,215.54s2.83,23.42-6.81,36-15.28,29.28-15.95,32.5-4.06,15.78,4.22,21.62,5.22,3.13,5.71,3.53,15,13.15,18.06,33.33c0,0,.19,5.82-.83,8.32l39.64-3.78s54.58-4.09,59.43-2.18c0,0,5.66.32,7.56,1.87s10.24,8.72,5.77,16.12c0,0,14.85-3.91,35.44,13.41s17.29,16.71,19,17.74c0,0,15.15-13.61,32,16.51,0,0,19.32-5.8,18.53,7.28,0,0,24,.5,44.88-3.65,0,0,11.7-3.67,17.45,3.05,0,0-2.8-4.82,7.62-14.45s21.41-16.61,19-33c0,0-15.58-34.21-20.11-38.17,0,0-7.72-11.8-14.32-16.69s-25.77-28.16-28.6-33.57-16-22.86-18.75-23.32c0,0-7.45-3.91-30-11.25,0,0-5.1-2.84-18.86-6.56a26.78,26.78,0,0,0-7.11-2,184.49,184.49,0,0,0-26.06-3.33s-8-.69-21.06-.44-34-2.56-34.15-2.68-41.49-6.93-46.8-8S215.73,215.54,215.73,215.54Z" style="fill: none;"></path>
<path id="bukovyna" class="cls-2" d="M220.13,350.88s97.3-10.82,106.63-4.09c5.49,3.95,6.85,8.75,7,12a5.44,5.44,0,0,1-3.17,5.26c-3.61,1.64-9.81,4.08-13.67,3.43-5.7-.95-17.39-2.69-18.77-2.56s-20.47,4-32.64,14.86A166.89,166.89,0,0,1,240.7,398.7c-6.73,4.34-23.71.55-23.71.55s-15.57-2.15-27.31,2.09h0s-7.79-20.13-1.48-36.79h0s27.17.75,31.93-13.67h0" style="fill: none;"></path>
<path id="zakarpattia" class="cls-2" d="M106.68,391.29c-10.22-18.53-32.46-8.07-32.46-8.07-13.71-23-20.65-6.71-20.65-6.71-6.39-4.31-11.35,6.2-11.35,6.2-16.85-30.68-28.9-30.45-28.9-30.45-3.24-26.15-10.89-18.38-10.89-18.38,6.93-6.1,14.76-20.69,14.76-20.69s2.65,3.1,13,4.54A80.22,80.22,0,0,0,55.35,317c4.23-.94,5.75-1.16,9.14-2.52s7-2.25,9.31,1.59a81.31,81.31,0,0,1,4.2,7.13,25.89,25.89,0,0,0,11.94,10.58s16,7.12,19.7,7.7c0,0,7.7,2.69,9.61,5.81s4.66,6.8,1.55,16c0,0-2.62,8.92-4.45,12.13a41.69,41.69,0,0,1-2.19,3.75c-.79,1.17-7.53,11.42-7.48,12.2h0" style="fill: none;"></path>
<path id="karpaty" class="cls-2" d="M188.2,364.55c-6.06,18.06,1.48,36.79,1.48,36.79-11.41,4-21,15.43-21,15.43-17-33.47-39.08-23.59-39.08-23.59-16.88,10.13-22.9-1.89-22.9-1.89,1.14-3,8.78-14.12,8.78-14.12a62.73,62.73,0,0,0,5.23-13.61c7-17.52-10.74-22-10.74-22A140.77,140.77,0,0,1,90.42,334c-11.23-5.25-12.71-12-15.83-16.82s-5.17-4.55-11.12-2.32-15.18,3.24-15.18,3.24c-24.5,1.82-31.1-4.87-31.1-4.87a44.16,44.16,0,0,0,3-8.68,34.68,34.68,0,0,1,4.29-14.92C38.19,269.08,50,286.72,50,286.72c2.19-11.33.94-12.88.15-16.28s-4.1-3.39-4.74-3.61c0,0-2.83-.19,1.42-10.14s1.61-16.53,1.61-16.53,8.87-.65,14.84,1.62,5.44,2,6.83,2.68a90.36,90.36,0,0,1,13.3,9c4.34,3.85,4,4.55,4,4.55l13,15.71s16.93,18.38,20,20.77c0,0,13.94,13.86,14.74,14.74s12.12,13.51,15,19.81c0,0,9.76,16.1,10.58,18.22l3.32,6.3s4.15,7.48,12.56,9.29S188.2,364.55,188.2,364.55Z" style="fill: none;"></path>
<path id="halychyna" class="cls-2" d="M128.3,169.12,46.35,236a15.66,15.66,0,0,1,2,4.19,41.65,41.65,0,0,1,25.35,6.38c12.69,8,13.58,11.5,13.58,11.5l11.56,14s14.45,16.4,24.27,25.29A185.23,185.23,0,0,1,143.37,319a287.84,287.84,0,0,1,20.11,33.71c8.58,16.81,36.49,10.87,36.49,10.87s28-2.48,19.51-27.47-20.89-29.52-20.89-29.52-12.64-5.07-3.42-29.45c0,0,5.06-13.89,12.42-23.65s9.25-20.11,8.14-37.9c0,0-21.59-3.54-23.12-4.75,0,0-10.62-3.41-11.25-4.13s-18.07-9.1-27-16.56C154.33,190.1,128.91,171.11,128.3,169.12Z" style="fill: none;"></path>
<path id="volyn" class="cls-2" d="M131,93.15s.95,24.57,14.67,33c0,0-12.67-4.1-10.58,4.71a28.82,28.82,0,0,1,9.81,19.1l-10.35,13.79-6.27,5.37s19.34,17,25.07,20.3c0,0,21,15,31,18.45s7.93,3.61,31.4,7.67,50.17,9.34,50.17,9.34l44.45,7.29a236,236,0,0,0,36.79,2.28c20.62-.3,43.22,3.62,47.11,5.23s14.59,3.81,20.09,6.93c0,0,27.13,9.24,29.9,11.18s20.56-15.27,20.1-28.39c0,0,2.56-21.69-4-33.56,0,0-12.06-.41-13.53-1.41,0,0-7.89-2.42-9.53-4.3,0,0-6.27-5.9-10.66-5.8a27.7,27.7,0,0,0-11.33.35c-5.62,1.53-15.91,4-17.67,3.78s-13.6,1.93-18.69-.06a27.21,27.21,0,0,1-12.59-9c-4.32-5.11-7.14-9-7.14-9l-13.65-14.89-6.32-6.18s-3.37-2.9-3.81-2.87-2.91-3-8.06-3.31-12.63-.5-13.84-1-13.23-1.53-14.72-2.42-16.56-3.27-16.74-3.29-32.5-4.13-35.24-4.12-20.76-1.95-26.56-3.78c0,0-13.25-3.27-15.31-3.86s-16.34-4.85-21.06-7.66c0,0-15.28-8-16.8-8.47s-35.6-16-36.14-16S131,93.15,131,93.15Z" style="fill: none;"></path>
<path id="polissia" class="cls-2" d="M131,92.67s-14.27-9.36-6.2-19.09c0,0-10.63-22.27,5.68-22.19,0,0,4.4-.41,8.95,7.24,0,0,5.23,3.52,18.61-12.42,0,0,3.22-10.07,13.67-10.93,0,0,10.57-1.31,15.93-.93s18.07-2.48,18.44-2.56,7.5-2.18,13.93,1.92,15.76,4.25,24.57,3,20.92,4.1,20.92,4.1,23.89,10.85,32.05,12.87,17.25,4,22.61,3.44,7.32,3.52,7.61,6.16,4.14,6.42,14.73,6.71,9.31,5.77,9.12,8.45-1.84,8.65,7,2.92,16.72-4.22,16.72-4.22,10.44,1.43,10.07-7.64a30.58,30.58,0,0,0,10.42,11,7.35,7.35,0,0,0,8.74-3.27c3.45-5.32,5.37,9.67,5.37,9.67s3.2,13.94,15.2-3.59l4.18-6.1s5.12-7,11.06,1.39a48.23,48.23,0,0,1,7.52,17.71L469,86s4.22,11.64,22,2.67c0,0,5.7-4.77,9.51,3.41s9.36,15.81,16.93,14.55c0,0,2,14.33-1.47,27.18s-8.78,30-2.81,40.79c0,0-11.68-2.14-13.8,13.4,0,0,9.41-2.69,15.48,8.18,0,0-8.2,6.51-54.49-.31,0,0-10.63-.56-13.53-1.41a32.9,32.9,0,0,1-12.7-6.74c-4.48-4-13.18-4.85-21.24-2.36s-24.58,5.25-33.94,3.07-20-18.3-20-18.3-19.39-21.93-23.53-23.56a16.16,16.16,0,0,0-9.62-3.44,145,145,0,0,1-29.91-4c-12.17-3.12-42-6.06-42-6.06s-25.51-2.16-32.29-4.08S196,123.8,178.72,114.47,131,92.67,131,92.67Z" style="fill: none;"></path>
<path id="kyiv" class="cls-2" d="M513.19,174.57s6.13,7.14,17.35-.92c0,0,7.07.36,0,9.69,0,0,5.65,9.83.24,11.74,0,0-10.67,2.68-15.86,1.07,0,0-4.29-9.88-15.48-8.18C499.39,188,500,173.65,513.19,174.57Z" style="fill: none;"></path>
</svg>
